<?xml version="1.0" encoding="utf-8"?>
<!-- Generator: Adobe Illustrator 25.1.0, SVG Export Plug-In . SVG Version: 6.00 Build 0)  -->
<svg version="1.1" id="Capa_1" xmlns="http://www.w3.org/2000/svg" xmlns:xlink="http://www.w3.org/1999/xlink" x="0px" y="0px"
	 viewBox="0 0 448.5 292.3" style="enable-background:new 0 0 448.5 292.3;" xml:space="preserve">
<g>
	<g>
		<path d="M36.9,282.2c-0.2,0-0.4-0.1-0.6-0.3c-0.2-0.2-0.3-0.4-0.3-0.6v-19c0-0.2,0.1-0.4,0.2-0.6c0.2-0.2,0.4-0.3,0.6-0.3l6.7,0
			c1.7,0,3.2,0.5,4.3,1.6c1.2,1.1,1.8,2.4,1.8,4c0,1-0.2,1.9-0.7,2.7c-0.5,0.8-1.1,1.5-1.9,2c0.9,0.5,1.7,1.1,2.2,2
			c0.6,0.9,0.8,1.8,0.8,2.9c0,1.6-0.6,2.9-1.8,4c-1.2,1.1-2.6,1.7-4.3,1.7H36.9z M37.7,270.9l5.8,0c1.2,0,2.2-0.4,3.1-1.2
			c0.9-0.8,1.3-1.7,1.3-2.8c0-1.1-0.4-2-1.3-2.7c-0.8-0.7-1.9-1.1-3.1-1.1l-5.8,0V270.9z M37.7,280.4h6.2c1.2,0,2.2-0.4,3.1-1.1
			c0.8-0.8,1.3-1.7,1.3-2.8c0-1.1-0.4-2-1.3-2.7c-0.8-0.7-1.9-1.1-3.1-1.1c0,0-0.1,0-0.1,0c-0.1,0-0.2,0-0.3,0h-5.8V280.4z"/>
		<path d="M53.3,282.1c-0.2-0.1-0.4-0.2-0.5-0.5c-0.1-0.2-0.1-0.4,0-0.7l2-4.9v0l5.9-14.2c0,0,0-0.1,0.1-0.2l0.1-0.1
			c0,0,0-0.1,0.1-0.1c0,0,0,0,0.1-0.1c0,0,0.1-0.1,0.1,0c0.1-0.1,0.2-0.1,0.3-0.1h0.1c0.1,0,0.1,0,0.1,0c0,0,0,0,0.1,0
			c0.1,0,0.1,0,0.1,0c0.1,0,0.2,0.1,0.3,0.1l0.1,0c0,0,0.1,0.1,0.1,0.1c0,0,0,0,0.1,0.1c0,0,0.1,0.1,0.1,0.1c0,0.1,0.1,0.1,0.1,0.2
			l5.9,14.2v0l2,4.9c0.1,0.2,0.1,0.4,0,0.7c-0.1,0.2-0.2,0.4-0.5,0.5c-0.1,0-0.2,0.1-0.3,0.1c-0.4,0-0.7-0.2-0.8-0.5l-1.8-4.3H56.2
			l-1.8,4.3c-0.1,0.4-0.4,0.5-0.8,0.5C53.5,282.2,53.4,282.1,53.3,282.1z M66.1,275.6l-4.6-11l-4.6,11H66.1z"/>
		<path d="M86.2,261.4c0.2,0,0.4,0.1,0.6,0.2c0.2,0.2,0.2,0.4,0.2,0.6V275c0,2-0.7,3.6-2.1,5c-1.4,1.4-3.1,2.1-5,2.1s-3.6-0.7-5-2.1
			s-2.1-3.1-2.1-5v-12.8c0-0.2,0.1-0.4,0.2-0.6c0.2-0.2,0.4-0.2,0.6-0.2c0.2,0,0.4,0.1,0.6,0.2c0.2,0.2,0.2,0.4,0.2,0.6V275
			c0,1.5,0.5,2.8,1.6,3.8c1.1,1.1,2.3,1.6,3.8,1.6c1.5,0,2.8-0.5,3.8-1.6c1.1-1.1,1.6-2.3,1.6-3.8v-12.8c0-0.2,0.1-0.4,0.2-0.6
			S85.9,261.4,86.2,261.4z"/>
		<path d="M96.1,263.1h-5.7c-0.2,0-0.4-0.1-0.6-0.2c-0.2-0.2-0.2-0.4-0.2-0.6c0-0.2,0.1-0.4,0.2-0.6c0.2-0.2,0.4-0.3,0.6-0.3h13.2
			c0.2,0,0.4,0.1,0.6,0.3c0.2,0.2,0.3,0.4,0.3,0.6c0,0.2-0.1,0.4-0.3,0.6c-0.2,0.2-0.4,0.2-0.6,0.2h-5.7v18.2c0,0.2-0.1,0.4-0.2,0.6
			c-0.2,0.2-0.4,0.2-0.6,0.2c-0.2,0-0.4-0.1-0.6-0.2c-0.2-0.2-0.2-0.4-0.2-0.6V263.1z"/>
		<path d="M108.6,281.3c0,0.2-0.1,0.4-0.3,0.6c-0.2,0.2-0.4,0.3-0.6,0.3c-0.2,0-0.4-0.1-0.6-0.3c-0.2-0.2-0.3-0.4-0.3-0.6v-19
			c0-0.2,0.1-0.4,0.3-0.6c0.2-0.2,0.4-0.3,0.6-0.3c0.2,0,0.4,0.1,0.6,0.3c0.2,0.2,0.3,0.4,0.3,0.6V281.3z"/>
		<path d="M119.1,272.6c-2.3,0-4.1-0.7-5.2-1.9c-0.9-1-1.4-2.2-1.3-3.5c0.1-1.6,0.7-3,2-4.1c1.2-1.1,2.7-1.7,4.4-1.7
			c1.5,0,2.9,0.3,4.1,1c1.4,0.8,2.3,1.9,2.7,3.3c0.1,0.2,0,0.4-0.1,0.7c-0.1,0.2-0.3,0.3-0.5,0.4c-0.2,0.1-0.4,0-0.7-0.1
			c-0.2-0.1-0.3-0.3-0.4-0.5c-0.3-1-0.9-1.8-2-2.3c-0.9-0.4-1.9-0.7-3.1-0.7c-1.3,0-2.4,0.4-3.3,1.2c-0.9,0.8-1.4,1.8-1.4,3
			c0,0.8,0.3,1.6,0.9,2.2c0.8,0.9,2.2,1.4,4,1.4c0.2,0,0.4,0.1,0.6,0.3c0.2,0.2,0.2,0.4,0.2,0.6c0,0.2-0.1,0.4-0.3,0.6
			C119.6,272.5,119.3,272.6,119.1,272.6L119.1,272.6z M115.3,281.2c-1.4-0.8-2.3-1.9-2.7-3.3c-0.1-0.2,0-0.4,0.1-0.7
			c0.1-0.2,0.3-0.3,0.5-0.4c0.2-0.1,0.4,0,0.7,0.1c0.2,0.1,0.3,0.3,0.4,0.5c0.3,1,0.9,1.8,2,2.3c0.9,0.4,1.9,0.7,3.1,0.7
			c1.3,0,2.4-0.4,3.3-1.2c0.9-0.8,1.4-1.8,1.4-3c0-0.8-0.3-1.6-0.9-2.2c-0.8-0.9-2.2-1.4-4-1.4c-0.2,0-0.4-0.1-0.6-0.3
			s-0.2-0.4-0.2-0.6c0-0.2,0.1-0.4,0.3-0.6c0.2-0.2,0.4-0.2,0.6-0.2c2.3,0,4.1,0.7,5.2,1.9c0.9,1,1.4,2.2,1.3,3.5
			c-0.1,1.6-0.7,3-2,4.1c-1.2,1.1-2.7,1.7-4.4,1.7C117.8,282.2,116.5,281.8,115.3,281.2z"/>
		<path d="M134.2,263.1h-5.7c-0.2,0-0.4-0.1-0.6-0.2c-0.2-0.2-0.2-0.4-0.2-0.6c0-0.2,0.1-0.4,0.2-0.6c0.2-0.2,0.4-0.3,0.6-0.3h13.2
			c0.2,0,0.4,0.1,0.6,0.3c0.2,0.2,0.3,0.4,0.3,0.6c0,0.2-0.1,0.4-0.3,0.6c-0.2,0.2-0.4,0.2-0.6,0.2h-5.7v18.2c0,0.2-0.1,0.4-0.2,0.6
			c-0.2,0.2-0.4,0.2-0.6,0.2c-0.2,0-0.4-0.1-0.6-0.2c-0.2-0.2-0.2-0.4-0.2-0.6V263.1z"/>
		<path d="M144.3,282.1c-0.2-0.1-0.4-0.2-0.5-0.5c-0.1-0.2-0.1-0.4,0-0.7l2-4.9v0l5.9-14.2c0,0,0-0.1,0.1-0.2l0.1-0.1
			c0,0,0-0.1,0.1-0.1c0,0,0,0,0.1-0.1c0,0,0.1-0.1,0.1,0c0.1-0.1,0.2-0.1,0.3-0.1h0.1c0.1,0,0.1,0,0.1,0c0,0,0,0,0.1,0
			c0.1,0,0.1,0,0.1,0c0.1,0,0.2,0.1,0.3,0.1l0.1,0c0,0,0.1,0.1,0.1,0.1c0,0,0,0,0.1,0.1c0,0,0.1,0.1,0.1,0.1c0,0.1,0.1,0.1,0.1,0.2
			l5.9,14.2v0l2,4.9c0.1,0.2,0.1,0.4,0,0.7c-0.1,0.2-0.2,0.4-0.5,0.5c-0.1,0-0.2,0.1-0.3,0.1c-0.4,0-0.7-0.2-0.8-0.5l-1.8-4.3h-10.6
			l-1.8,4.3c-0.1,0.4-0.4,0.5-0.8,0.5C144.6,282.2,144.5,282.1,144.3,282.1z M157.1,275.6l-4.6-11l-4.6,11H157.1z"/>
		<path d="M186.1,261.5c0.2,0.2,0.3,0.3,0.3,0.6c0,0.2,0,0.5-0.2,0.6l-7.1,8.9v9.6c0,0.2-0.1,0.4-0.2,0.6c-0.2,0.2-0.4,0.3-0.6,0.3
			c-0.2,0-0.4-0.1-0.6-0.3c-0.2-0.2-0.2-0.4-0.2-0.6v-9.6l-7.1-8.9c-0.1-0.2-0.2-0.4-0.2-0.6c0-0.2,0.1-0.4,0.3-0.6
			c0.2-0.1,0.4-0.2,0.6-0.2c0.2,0,0.4,0.1,0.6,0.3l6.6,8.3l6.7-8.3c0.2-0.2,0.3-0.3,0.6-0.3C185.7,261.3,185.9,261.4,186.1,261.5z"
			/>
		<path d="M196.1,282.1c-0.2-0.1-0.4-0.2-0.5-0.5c-0.1-0.2-0.1-0.4,0-0.7l2-4.9v0l5.9-14.2c0,0,0-0.1,0.1-0.2l0.1-0.1
			c0,0,0-0.1,0.1-0.1c0,0,0,0,0.1-0.1c0,0,0.1-0.1,0.1,0c0.1-0.1,0.2-0.1,0.3-0.1h0.1c0.1,0,0.1,0,0.1,0c0,0,0,0,0.1,0
			c0.1,0,0.1,0,0.1,0c0.1,0,0.2,0.1,0.3,0.1l0.1,0c0,0,0.1,0.1,0.1,0.1c0,0,0,0,0.1,0.1c0,0,0.1,0.1,0.1,0.1c0,0.1,0.1,0.1,0.1,0.2
			l5.9,14.2v0l2,4.9c0.1,0.2,0.1,0.4,0,0.7c-0.1,0.2-0.2,0.4-0.5,0.5c-0.1,0-0.2,0.1-0.3,0.1c-0.4,0-0.7-0.2-0.8-0.5l-1.8-4.3H199
			l-1.8,4.3c-0.1,0.4-0.4,0.5-0.8,0.5C196.3,282.2,196.2,282.1,196.1,282.1z M208.9,275.6l-4.6-11l-4.6,11H208.9z"/>
		<path d="M221.7,272.6c-2.3,0-4.1-0.7-5.2-1.9c-0.9-1-1.4-2.2-1.3-3.5c0.1-1.6,0.7-3,2-4.1c1.2-1.1,2.7-1.7,4.4-1.7
			c1.5,0,2.9,0.3,4.1,1c1.4,0.8,2.3,1.9,2.7,3.3c0.1,0.2,0,0.4-0.1,0.7c-0.1,0.2-0.3,0.3-0.5,0.4c-0.2,0.1-0.4,0-0.7-0.1
			c-0.2-0.1-0.3-0.3-0.4-0.5c-0.3-1-0.9-1.8-2-2.3c-0.9-0.4-1.9-0.7-3.1-0.7c-1.3,0-2.4,0.4-3.3,1.2c-0.9,0.8-1.4,1.8-1.4,3
			c0,0.8,0.3,1.6,0.9,2.2c0.8,0.9,2.2,1.4,4,1.4c0.2,0,0.4,0.1,0.6,0.3c0.2,0.2,0.2,0.4,0.2,0.6c0,0.2-0.1,0.4-0.3,0.6
			C222.2,272.5,222,272.6,221.7,272.6L221.7,272.6z M217.9,281.2c-1.4-0.8-2.3-1.9-2.7-3.3c-0.1-0.2,0-0.4,0.1-0.7
			c0.1-0.2,0.3-0.3,0.5-0.4c0.2-0.1,0.4,0,0.7,0.1c0.2,0.1,0.3,0.3,0.4,0.5c0.3,1,0.9,1.8,2,2.3c0.9,0.4,1.9,0.7,3.1,0.7
			c1.3,0,2.4-0.4,3.3-1.2c0.9-0.8,1.4-1.8,1.4-3c0-0.8-0.3-1.6-0.9-2.2c-0.8-0.9-2.2-1.4-4-1.4c-0.2,0-0.4-0.1-0.6-0.3
			s-0.2-0.4-0.2-0.6c0-0.2,0.1-0.4,0.3-0.6c0.2-0.2,0.4-0.2,0.6-0.2c2.3,0,4.1,0.7,5.2,1.9c0.9,1,1.4,2.2,1.3,3.5
			c-0.1,1.6-0.7,3-2,4.1c-1.2,1.1-2.7,1.7-4.4,1.7C220.5,282.2,219.1,281.8,217.9,281.2z"/>
		<path d="M241,282.2c-2.9,0-5.3-1-7.3-3c-2-2-3-4.5-3-7.3c0-2.9,1-5.3,3-7.3c2-2,4.5-3,7.3-3c2.9,0,5.3,1,7.3,3c2,2,3,4.5,3,7.3
			c0,2.9-1,5.3-3,7.3C246.3,281.1,243.9,282.2,241,282.2z M241,263.1c-2.4,0-4.4,0.9-6.1,2.6c-1.7,1.7-2.5,3.7-2.5,6.1
			c0,2.4,0.8,4.4,2.5,6.1c1.7,1.7,3.7,2.5,6.1,2.5c2.4,0,4.4-0.8,6.1-2.5c1.7-1.7,2.6-3.7,2.6-6.1c0-2.4-0.9-4.4-2.6-6.1
			C245.4,263.9,243.4,263.1,241,263.1z"/>
		<path d="M264.4,282.2c-2.9,0-5.3-1-7.3-3.1c-2-2-3.1-4.5-3.1-7.3c0-2.9,1-5.3,3.1-7.4c2-2,4.5-3.1,7.3-3.1c2.4,0,4.5,0.7,6.3,2.2
			c0.2,0.1,0.3,0.3,0.3,0.6c0,0.2,0,0.5-0.2,0.6c-0.1,0.2-0.3,0.3-0.6,0.3c-0.2,0-0.5,0-0.6-0.2c-1.6-1.2-3.3-1.8-5.3-1.8
			c-2.4,0-4.4,0.8-6.1,2.5c-1.7,1.7-2.5,3.7-2.5,6.1c0,2.4,0.8,4.4,2.5,6.1s3.7,2.5,6.1,2.5c2.2,0,4.2-0.7,5.8-2.2
			c0.2-0.2,0.4-0.2,0.6-0.2c0.2,0,0.4,0.1,0.6,0.3c0.2,0.2,0.2,0.4,0.2,0.6c0,0.2-0.1,0.4-0.3,0.6
			C269.5,281.2,267.1,282.2,264.4,282.2z"/>
		<path d="M276.7,281.3c0,0.2-0.1,0.4-0.3,0.6c-0.2,0.2-0.4,0.3-0.6,0.3c-0.2,0-0.4-0.1-0.6-0.3c-0.2-0.2-0.3-0.4-0.3-0.6v-19
			c0-0.2,0.1-0.4,0.3-0.6c0.2-0.2,0.4-0.3,0.6-0.3c0.2,0,0.4,0.1,0.6,0.3c0.2,0.2,0.3,0.4,0.3,0.6V281.3z"/>
		<path d="M280.6,282.1c-0.2-0.1-0.4-0.2-0.5-0.5c-0.1-0.2-0.1-0.4,0-0.7l2-4.9v0l5.9-14.2c0,0,0-0.1,0.1-0.2l0.1-0.1
			c0,0,0-0.1,0.1-0.1c0,0,0,0,0.1-0.1c0,0,0.1-0.1,0.1,0c0.1-0.1,0.2-0.1,0.3-0.1h0.1c0.1,0,0.1,0,0.1,0c0,0,0,0,0.1,0
			c0.1,0,0.1,0,0.1,0c0.1,0,0.2,0.1,0.3,0.1l0.1,0c0,0,0.1,0.1,0.1,0.1c0,0,0,0,0.1,0.1c0,0,0.1,0.1,0.1,0.1c0,0.1,0.1,0.1,0.1,0.2
			l5.9,14.2v0l2,4.9c0.1,0.2,0.1,0.4,0,0.7c-0.1,0.2-0.2,0.4-0.5,0.5c-0.1,0-0.2,0.1-0.3,0.1c-0.4,0-0.7-0.2-0.8-0.5l-1.8-4.3h-10.6
			l-1.8,4.3c-0.1,0.4-0.4,0.5-0.8,0.5C280.8,282.2,280.7,282.1,280.6,282.1z M293.4,275.6l-4.6-11l-4.6,11H293.4z"/>
		<path d="M301.3,282.2c-0.2,0-0.4-0.1-0.6-0.2c-0.2-0.2-0.3-0.4-0.3-0.6v-19.1c0-0.2,0.1-0.4,0.3-0.6c0.2-0.2,0.4-0.3,0.6-0.3h4.8
			c2.9,0,5.3,1,7.3,3c2,2,3,4.5,3,7.3s-1,5.3-3,7.3c-2,2-4.5,3-7.3,3L301.3,282.2L301.3,282.2z M302.2,280.4l3.9-0.1
			c2.4,0,4.4-0.8,6.1-2.5c1.7-1.7,2.5-3.7,2.5-6.1c0-2.4-0.8-4.4-2.5-6.1c-1.7-1.7-3.7-2.5-6.1-2.5h-4V280.4z"/>
		<path d="M329.5,282.2c-2.9,0-5.3-1-7.3-3c-2-2-3-4.5-3-7.3c0-2.9,1-5.3,3-7.3c2-2,4.5-3,7.3-3c2.9,0,5.3,1,7.3,3c2,2,3,4.5,3,7.3
			c0,2.9-1,5.3-3,7.3C334.8,281.1,332.3,282.2,329.5,282.2z M329.5,263.1c-2.4,0-4.4,0.9-6.1,2.6c-1.7,1.7-2.5,3.7-2.5,6.1
			c0,2.4,0.8,4.4,2.5,6.1c1.7,1.7,3.7,2.5,6.1,2.5c2.4,0,4.4-0.8,6.1-2.5c1.7-1.7,2.6-3.7,2.6-6.1c0-2.4-0.9-4.4-2.6-6.1
			C333.9,263.9,331.9,263.1,329.5,263.1z"/>
		<path d="M349.8,272.6c-2.3,0-4.1-0.7-5.2-1.9c-0.9-1-1.4-2.2-1.3-3.5c0.1-1.6,0.7-3,2-4.1c1.2-1.1,2.7-1.7,4.4-1.7
			c1.5,0,2.9,0.3,4.1,1c1.4,0.8,2.3,1.9,2.7,3.3c0.1,0.2,0,0.4-0.1,0.7c-0.1,0.2-0.3,0.3-0.5,0.4c-0.2,0.1-0.4,0-0.7-0.1
			c-0.2-0.1-0.3-0.3-0.4-0.5c-0.3-1-0.9-1.8-2-2.3c-0.9-0.4-1.9-0.7-3.1-0.7c-1.3,0-2.4,0.4-3.3,1.2c-0.9,0.8-1.4,1.8-1.4,3
			c0,0.8,0.3,1.6,0.9,2.2c0.8,0.9,2.2,1.4,4,1.4c0.2,0,0.4,0.1,0.6,0.3c0.2,0.2,0.2,0.4,0.2,0.6c0,0.2-0.1,0.4-0.3,0.6
			C350.3,272.5,350.1,272.6,349.8,272.6L349.8,272.6z M346,281.2c-1.4-0.8-2.3-1.9-2.7-3.3c-0.1-0.2,0-0.4,0.1-0.7
			c0.1-0.2,0.3-0.3,0.5-0.4c0.2-0.1,0.4,0,0.7,0.1c0.2,0.1,0.3,0.3,0.4,0.5c0.3,1,0.9,1.8,2,2.3c0.9,0.4,1.9,0.7,3.1,0.7
			c1.3,0,2.4-0.4,3.3-1.2c0.9-0.8,1.4-1.8,1.4-3c0-0.8-0.3-1.6-0.9-2.2c-0.8-0.9-2.2-1.4-4-1.4c-0.2,0-0.4-0.1-0.6-0.3
			s-0.2-0.4-0.2-0.6c0-0.2,0.1-0.4,0.3-0.6c0.2-0.2,0.4-0.2,0.6-0.2c2.3,0,4.1,0.7,5.2,1.9c0.9,1,1.4,2.2,1.3,3.5
			c-0.1,1.6-0.7,3-2,4.1c-1.2,1.1-2.7,1.7-4.4,1.7C348.6,282.2,347.2,281.8,346,281.2z"/>
		<path d="M373.4,272.6c-2.3,0-4.1-0.7-5.2-1.9c-0.9-1-1.4-2.2-1.3-3.5c0.1-1.6,0.7-3,2-4.1c1.2-1.1,2.7-1.7,4.4-1.7
			c1.5,0,2.9,0.3,4.1,1c1.4,0.8,2.3,1.9,2.7,3.3c0.1,0.2,0,0.4-0.1,0.7c-0.1,0.2-0.3,0.3-0.5,0.4c-0.2,0.1-0.4,0-0.7-0.1
			c-0.2-0.1-0.3-0.3-0.4-0.5c-0.3-1-0.9-1.8-2-2.3c-0.9-0.4-1.9-0.7-3.1-0.7c-1.3,0-2.4,0.4-3.3,1.2c-0.9,0.8-1.4,1.8-1.4,3
			c0,0.8,0.3,1.6,0.9,2.2c0.8,0.9,2.2,1.4,4,1.4c0.2,0,0.4,0.1,0.6,0.3c0.2,0.2,0.2,0.4,0.2,0.6c0,0.2-0.1,0.4-0.3,0.6
			C373.9,272.5,373.7,272.6,373.4,272.6L373.4,272.6z M369.6,281.2c-1.4-0.8-2.3-1.9-2.7-3.3c-0.1-0.2,0-0.4,0.1-0.7
			c0.1-0.2,0.3-0.3,0.5-0.4c0.2-0.1,0.4,0,0.7,0.1c0.2,0.1,0.3,0.3,0.4,0.5c0.3,1,0.9,1.8,2,2.3c0.9,0.4,1.9,0.7,3.1,0.7
			c1.3,0,2.4-0.4,3.3-1.2c0.9-0.8,1.4-1.8,1.4-3c0-0.8-0.3-1.6-0.9-2.2c-0.8-0.9-2.2-1.4-4-1.4c-0.2,0-0.4-0.1-0.6-0.3
			s-0.2-0.4-0.2-0.6c0-0.2,0.1-0.4,0.3-0.6c0.2-0.2,0.4-0.2,0.6-0.2c2.3,0,4.1,0.7,5.2,1.9c0.9,1,1.4,2.2,1.3,3.5
			c-0.1,1.6-0.7,3-2,4.1c-1.2,1.1-2.7,1.7-4.4,1.7C372.2,282.2,370.8,281.8,369.6,281.2z"/>
		<path d="M385.4,280.7c0.2-0.2,0.4-0.2,0.6-0.2c0.2,0,0.4,0.1,0.6,0.2c0.2,0.2,0.2,0.4,0.2,0.6c0,0.2-0.1,0.4-0.2,0.6
			c-0.2,0.2-0.4,0.3-0.6,0.3c-0.2,0-0.4-0.1-0.6-0.3c-0.2-0.2-0.2-0.4-0.2-0.6C385.2,281,385.2,280.8,385.4,280.7z"/>
		<path d="M401.3,282.2c-2.9,0-5.3-1-7.3-3.1c-2-2-3.1-4.5-3.1-7.3c0-2.9,1-5.3,3.1-7.4c2-2,4.5-3.1,7.3-3.1c2.4,0,4.5,0.7,6.3,2.2
			c0.2,0.1,0.3,0.3,0.3,0.6c0,0.2,0,0.5-0.2,0.6c-0.1,0.2-0.3,0.3-0.6,0.3c-0.2,0-0.5,0-0.6-0.2c-1.6-1.2-3.3-1.8-5.3-1.8
			c-2.4,0-4.4,0.8-6.1,2.5c-1.7,1.7-2.5,3.7-2.5,6.1c0,2.4,0.8,4.4,2.5,6.1s3.7,2.5,6.1,2.5c2.2,0,4.2-0.7,5.8-2.2
			c0.2-0.2,0.4-0.2,0.6-0.2c0.2,0,0.4,0.1,0.6,0.3c0.2,0.2,0.2,0.4,0.2,0.6c0,0.2-0.1,0.4-0.3,0.6
			C406.3,281.2,404,282.2,401.3,282.2z"/>
	</g>
	<g>
		<path d="M36.4,216.5h12.2c3.4,0,5.9,0.8,7.5,2.5c1.2,1.3,1.8,2.8,1.8,4.7c0,1.7-0.5,3.1-1.4,4.3c-0.8,1-1.8,1.7-3.1,2.3
			c4.1,1.2,6.1,3.6,6.1,7c0,2.4-1,4.3-2.9,5.7c-1.9,1.4-4.4,2.1-7.5,2.1H36.4V216.5z M48.1,229.3c2,0,3.6-0.4,4.7-1.3
			c1.2-0.9,1.8-2.2,1.8-3.9c0-1.4-0.5-2.6-1.6-3.4c-1.1-0.8-2.7-1.3-4.7-1.3h-8.7v9.9H48.1z M49.3,242.2c2.2,0,3.9-0.5,5.2-1.4
			c1.3-0.9,1.9-2.2,1.9-3.8c0-3.3-2.5-4.9-7.6-4.9h-9v10.1H49.3z"/>
		<path d="M111,242.4c-2.2-2.2-3.3-5.3-3.3-9.2v-16.7h3.2v16.5c0,3.1,0.8,5.5,2.3,7.2c1.5,1.7,3.7,2.5,6.4,2.5
			c2.7,0,4.8-0.8,6.3-2.4c1.6-1.6,2.3-4,2.3-7.1v-16.7h3.2v16.4c0,4.1-1.1,7.2-3.3,9.5c-2.1,2.2-5,3.2-8.7,3.2
			C116,245.6,113.1,244.5,111,242.4z"/>
		<path d="M181.4,216.5H202v3h-17.4v10.2h15.5v2.9h-15.5v12.5h-3.2V216.5z"/>
		<path d="M250.5,216.5h20.7v2.9h-17.5v9.8h15.6v2.9h-15.6v10h17.7v2.9h-20.9V216.5z"/>
		<path d="M327.6,219.5H318v-3h22.5v3h-9.6v25.7h-3.3V219.5z"/>
		<path d="M388.8,216.5h20.7v2.9H392v9.8h15.6v2.9H392v10h17.7v2.9h-20.9V216.5z"/>
	</g>
</g>
<path d="M122.2,184.6l27.4-0.6l27.4-0.7c15.3-0.5,30.5-0.9,45.8-1.4c15.3,0.5,30.5,1,45.8,1.4l27.4,0.7l27.4,0.6
	c9.1,0.2,18.3,0.5,27.4,0.8c9.1,0.3,18.3,0.3,27.4,0h49.4c5.8,0,10.5-1.9,10.5-4.3c0-2.4-4.7-4.3-10.5-4.3h-49.4
	c-9.1-0.3-18.3-0.2-27.4,0c-9.1,0.3-18.3,0.6-27.4,0.8l-27.4,0.6l-27.4,0.7c-15.3,0.5-30.5,0.9-45.8,1.4c-15.3-0.5-30.5-1-45.8-1.4
	l-27.4-0.7l-27.4-0.6c-9.1-0.2-18.3-0.5-27.4-0.8c-9.1-0.3-18.3-0.3-27.4,0H18c-5.8,0-10.5,1.9-10.5,4.3c0,2.4,4.7,4.3,10.5,4.3
	h49.4c9.1,0.3,18.3,0.2,27.4,0C103.9,185.2,113.1,184.8,122.2,184.6z"/>
<path d="M269.9,90.3c-4.9-7.7-11.5-13.1-20.2-16.2c-4.3-1.5-8.8-2.2-13.3-2.5c9.2-2.6,17-6.8,23.1-14.5c8-10.1,7.9-25.4,1.6-34.7
	c-7.3-11-18-16.3-31.2-16.7c-19-0.5-38.1,0.4-57.1,0.5c-0.2,0-0.4,0-0.6,0c-0.7,0-1.4-0.1-1.4,1c0,0.7,0.1,1.3,0.8,1.7
	c0.7,0.3,1.3,0.2,2,0.3c9.3,1.7,13.4,6.1,13.5,15.3c0.3,33,0.1,66,0.1,99c0,2.3,0,4.6-0.4,6.8c-0.6,2.9-1,5.9-3.3,8.3
	c-3.1,3.2-6.8,4.9-11.2,4.9c-1.3,0-2.2,0.1-2.2,1.9c0,1.9,1,1.7,2.3,1.7c21.7,0,43.4,0,65.1,0c5.4,0,10.8-0.5,15.7-3.2
	c4.2-2.3,8.1-4.8,11.6-8.3c6.1-6.2,9.6-13.4,10.4-22C276.1,105.3,274.5,97.5,269.9,90.3z M210,12.4c0-1.8,0.4-2.2,2.2-2.3
	c9-0.5,16.5,2.5,22,9.5c5.1,6.5,6.6,14.2,6.4,22.4c-0.2,7-2.3,13.2-6.2,18.9c-4,5.9-16.1,11.3-23,10c-1.8-0.3-1.2-1.5-1.2-2.5
	c0-9.4,0-18.9,0-28.3c0,0-0.1,0-0.1,0C210,30.9,210.1,21.7,210,12.4z M247.9,122.7c-1.6,4.8-5,8.8-9.1,12
	c-7.6,5.9-16.3,9.2-26.2,8.9c-2-0.1-2.6-0.6-2.6-2.6c0.1-10.6,0.1-21.3,0.1-31.9s0-21.3,0-31.9c0-1.8,0.4-2.6,2.4-2.5
	c4.1,0.2,8.3-0.1,12.4,0.1c7.4,0.5,13.4,3.6,17.9,9.7C251.4,96.3,252.4,109.2,247.9,122.7z"/>
</svg>
